<?xml version="1.0" encoding="utf-8"?>
<!-- Generator: Adobe Illustrator 19.1.0, SVG Export Plug-In . SVG Version: 6.00 Build 0)  -->
<!DOCTYPE svg PUBLIC "-//W3C//DTD SVG 1.1//EN" "http://www.w3.org/Graphics/SVG/1.1/DTD/svg11.dtd">
<svg version="1.1" id="Lager_1" xmlns="http://www.w3.org/2000/svg" xmlns:xlink="http://www.w3.org/1999/xlink" x="0px" y="0px"
	 viewBox="0 0 665.3 202" style="enable-background:new 0 0 665.3 202;" xml:space="preserve">
<style type="text/css">
	.st0{fill:#FFFFFF;}
</style>
<g>
	<g>
		<g>
			<path class="st0" d="M105.7,183.8c48.7,3.5,122,7.6,198.2,7.7c-4.3,0-8.7,0-13,0c-13.2,0-26.4-0.1-39.5-0.4h-0.1
				c-74-1.3-142.6-5.8-185.4-9.2c-7.2-0.6-13.8-1.1-19.4-1.6c-16.1-1.4-25.4-2.3-25.8-2.4l0.1-1.5c0.4,0,9.7,1,25.8,2.4
				c0,0,0.1,0,0.2,0c1.1,0.1,7.9,0.8,19.2,1.7l0-0.1c0.4,0,13,1.2,34.2,2.8c0.7,0.1,1.3,0.1,2,0.2
				C103.5,183.7,104.6,183.7,105.7,183.8z"/>
		</g>
		<g>
			<path class="st0" d="M453.4,8.4c-4.3-0.1-8.3-0.1-12.1,0c-7,0.2-11.1,0.5-11.3,0.5l0-0.4c-11.8,0.3-19.1,0.8-19.2,0.8l-0.1-1.5
				c5.7-0.1,12.2-0.2,19.3-0.1c5.6,0.1,11.5,0.2,17.7,0.4C449.5,8.2,451.4,8.3,453.4,8.4z"/>
		</g>
	</g>
	<g>
		<g>
			<path class="st0" d="M349.6,192c23.1-0.3,45.1-1,65.8-2.1c-26.6,1.7-55.4,2.7-86.4,3c-6.9,0.1-13.8,0.1-20.6,0.1
				c-76.1,0-149.7-4-199.4-7.5c-0.3,0-0.5,0-0.8-0.1c-0.7,0-1.4-0.1-2-0.1c-0.7,0-1.5-0.1-2.2-0.2c-34.9-2.5-56.8-4.7-57.3-4.7
				l0.1-1.5c0,0,0.1,0,0.2,0c1.1,0.1,7.9,0.8,19.2,1.7c8.8,0.8,20.5,1.7,34.2,2.7c0.7,0.1,1.3,0.1,2,0.2c1.1,0.1,2.2,0.2,3.3,0.2
				c48.7,3.5,122,7.6,198.2,7.7c-4.3,0-8.7,0-13,0c-13.2,0-26.4-0.1-39.5-0.4C282.9,192.1,316.2,192.5,349.6,192z"/>
		</g>
		<g>
			<path class="st0" d="M447.7,8.1c1.9,0.1,3.8,0.2,5.7,0.2c-4.3-0.1-8.3-0.1-12.1,0c-4.1,0-7.9,0.1-11.3,0.2
				c-11.8,0.3-19.1,0.8-19.2,0.8l-0.1-1.5v0c0.2,0,12-0.8,30.1-0.9h0c13.3-0.1,30,0.2,47.9,1.5C472.4,7.8,458.1,7.9,447.7,8.1z"/>
		</g>
	</g>
	<g>
		<g>
			<path class="st0" d="M657.3,112.5c-7.2,28.2-42.9,49.5-106.1,63c-50.3,10.8-118.2,16.9-201.7,18c-9.6,0.1-19.1,0.2-28.6,0.2
				c-84.4,0-164.7-4.7-211.9-8.2c49.7,3.5,123.2,7.5,199.4,7.5c6.8,0,13.7,0,20.6-0.1c31-0.3,59.8-1.3,86.4-3
				c-20.7,1.1-42.7,1.8-65.8,2.1c-33.4,0.5-66.7,0.1-98.1-0.8c13,0.2,26.2,0.4,39.5,0.4c4.3,0,8.6,0,13,0
				c-76.2-0.2-149.5-4.2-198.2-7.7c-1.1-0.1-2.2-0.2-3.3-0.2c-0.7,0-1.4-0.1-2-0.2c-21.2-1.6-33.8-2.8-34.2-2.8l0,0.1
				c-11.3-1-18.1-1.6-19.2-1.7c47.1,4,151.7,11.7,257.5,11.1c83.4-0.5,151.1-6.1,201.3-16.6c62.5-13,97.9-33.7,104.9-61.3
				c5.7-22.2,2.1-41.1-10.7-56.3c-25.2-30-82.3-40.8-125.8-44.6c-47.2-4.1-88.9-1-89.4-0.9l-0.1-1.5c0.2,0,10.2-0.8,25.8-1.1
				l0.1,1.5c0.2,0,7.4-0.5,19.2-0.8l0,0.4c0.1,0,4.2-0.3,11.3-0.5c3.8,0,7.8,0,12.1,0c-1.9-0.1-3.8-0.2-5.7-0.2
				c10.4-0.3,24.7-0.4,41,0.2c-17.9-1.3-34.6-1.6-47.9-1.5c15.5-0.6,45.8-1.1,78.8,2c43.8,4,101.3,15.3,126.8,45.9
				C659.4,70.4,663.1,89.9,657.3,112.5z"/>
		</g>
		<g>
			<path class="st0" d="M349.6,192c23.1-0.3,45.1-1,65.8-2.1c-26.6,1.7-55.4,2.7-86.4,3c-6.9,0.1-13.8,0.1-20.6,0.1
				c-76.1,0-149.7-4-199.4-7.5c-0.3,0-0.5,0-0.8-0.1c-0.7,0-1.4-0.1-2-0.1c-0.7,0-1.5-0.1-2.2-0.2c-23.5-1.7-37.5-3.1-37.9-3.1v0
				l0.1-1.3l0-0.1c0.4,0,13,1.2,34.2,2.8c0.7,0.1,1.3,0.1,2,0.2c1.1,0.1,2.2,0.2,3.3,0.2c33.8,2.5,86.4,5.8,145.7,7.4h0.1
				C282.9,192.1,316.2,192.5,349.6,192z"/>
		</g>
		<g>
			<path class="st0" d="M488.6,8.4c-16.3-0.6-30.6-0.5-41-0.2c-2.3,0.1-4.5,0.1-6.4,0.2c-7,0.2-11.1,0.5-11.3,0.5l0-0.4l0-0.8l0-0.3
				c0.1,0,4-0.3,10.8-0.5h0C454,6.8,470.7,7.1,488.6,8.4z"/>
		</g>
	</g>
</g>
<g>
	<path class="st0" d="M86.6,97.4H26.4C16.8,97.4,9,89.6,9,80V59.6c0-9.6,7.8-17.4,17.4-17.4h60.2v14.4H23.4V83h63.2V97.4z"/>
	<path class="st0" d="M105.8,36.2H91.4V21.8h14.4V36.2z M105.8,97.4H91.4V42.2h14.4V97.4z"/>
	<path class="st0" d="M189.8,97.4h-60.2c-9.6,0-17.4-7.8-17.4-17.4V21.8h14.4v20.4h63.2v14.4h-63.2V83h63.2V97.4z"/>
	<path class="st0" d="M273.8,100.4c0,9.6-7.8,17.4-17.4,17.4h-60.2v-14.4h63.2v-6h-45.8c-9.6,0-17.4-7.8-17.4-17.4V42.2h14.4V83
		h48.8V42.2h14.4V100.4z"/>
	<path class="st0" d="M371.4,97.4h-45.8c-9.6,0-17.4-7.8-17.4-17.4V42.2h14.4V83h48.8V97.4z"/>
	<path class="st0" d="M390.6,36.2h-14.4V21.8h14.4V36.2z M390.6,97.4h-14.4V42.2h14.4V97.4z"/>
	<path class="st0" d="M474.6,83h-63.2v34.8H397V59.6c0-9.6,7.8-17.4,17.4-17.4h60.2v14.4h-63.2v12h63.2V83z"/>
	<path class="st0" d="M557,97.4h-60.2c-9.6,0-17.4-7.8-17.4-17.4V59.6c0-9.6,7.8-17.4,17.4-17.4h42.8c9.6,0,17.4,7.8,17.4,17.4V77
		h-63.2v6H557V97.4z M542.6,62.6v-6h-48.8v6H542.6z"/>
</g>
<g>
	<path class="st0" d="M12.4,151H8.9v-20.4h3.5V151z M36.3,151h-7.7l-13.2-6.7c-1.3-0.7-2.2-2-2.2-3.5s0.9-2.9,2.2-3.5
		c12.9-6.6,12.9-6.6,12.9-6.6h7.7l-19.9,10.1L36.3,151z"/>
	<path class="st0" d="M63.6,145.5c0,3.1-2.5,5.5-5.5,5.5H42.3c-3.1,0-5.5-2.5-5.5-5.5v-9.3c0-3.1,2.5-5.5,5.5-5.5h15.8
		c3.1,0,5.5,2.5,5.5,5.5V145.5z M60.1,147.5v-13.3H40.3v13.3H60.1z"/>
	<path class="st0" d="M94.6,151h-3.5v-16.8H71.3V151h-3.5v-20.4h21.3c3.1,0,5.5,2.5,5.5,5.5V151z"/>
	<path class="st0" d="M125.6,144.8h-23.3v13.7h-3.5v-22.4c0-3.1,2.5-5.5,5.5-5.5h21.3v3.5h-23.3v7.1h23.3V144.8z"/>
	<path class="st0" d="M155.6,151h-21.3c-3.1,0-5.5-2.5-5.5-5.5v-9.3c0-3.1,2.5-5.5,5.5-5.5H150c3.1,0,5.5,2.5,5.5,5.5v6.4h-23.3v4.9
		h23.3V151z M152,139.1v-4.9h-19.8v4.9H152z"/>
	<path class="st0" d="M186.6,140.9H183v-6.6h-19.8V151h-3.5v-20.4H181c3.1,0,5.5,2.5,5.5,5.5V140.9z"/>
	<path class="st0" d="M216.5,151h-21.3c-3.1,0-5.5-2.5-5.5-5.5v-9.3c0-3.1,2.5-5.5,5.5-5.5H211c3.1,0,5.5,2.5,5.5,5.5v6.4h-23.3v4.9
		h23.3V151z M213,139.1v-4.9h-19.8v4.9H213z"/>
	<path class="st0" d="M247.5,151H244v-16.8h-19.8V151h-3.5v-20.4H242c3.1,0,5.5,2.5,5.5,5.5V151z"/>
	<path class="st0" d="M278.4,145.5c0,3.1-2.5,5.5-5.5,5.5h-21.3v-3.5h23.3v-4.9h-18.7c-3.1,0-5.5-2.5-5.5-5.5v-0.9
		c0-3.1,2.5-5.5,5.5-5.5h21.3v3.5h-23.3v4.9h18.7c3.1,0,5.5,2.5,5.5,5.5V145.5z"/>
	<path class="st0" d="M318.7,145.5c0,3.1-2.5,5.5-5.5,5.5h-15.8c-3.1,0-5.5-2.5-5.5-5.5v-9.3c0-3.1,2.5-5.5,5.5-5.5h15.8
		c3.1,0,5.5,2.5,5.5,5.5V145.5z M315.2,147.5v-13.3h-19.8v13.3H315.2z"/>
	<path class="st0" d="M349.7,151h-21.3c-3.1,0-5.5-2.5-5.5-5.5v-9.3c0-3.1,2.5-5.5,5.5-5.5h21.3v3.5h-23.3v13.3h23.3V151z"/>
	<path class="st0" d="M379.7,151h-3.5v-16.8h-19.8V151h-3.5v-27.9h3.5v7.5h17.8c3.1,0,5.5,2.5,5.5,5.5V151z"/>
	<path class="st0" d="M433.7,151h-3.5v-16.8h-14.5V151h-3.5v-16.8h-14.5V151h-3.5v-20.4h34c3.1,0,5.5,2.5,5.5,5.5V151z"/>
	<path class="st0" d="M464.7,145.5c0,3.1-2.5,5.5-5.5,5.5h-15.8c-3.1,0-5.5-2.5-5.5-5.5v-9.3c0-3.1,2.5-5.5,5.5-5.5h15.8
		c3.1,0,5.5,2.5,5.5,5.5V145.5z M461.2,147.5v-13.3h-19.8v13.3H461.2z M449.3,128.5h-3.5V124h3.5V128.5z M456.9,128.5h-3.5V124h3.5
		V128.5z"/>
	<path class="st0" d="M495.7,151h-21.3c-3.1,0-5.5-2.5-5.5-5.5v-22.4h3.5v7.5h23.3v3.5h-23.3v13.3h23.3V151z"/>
	<path class="st0" d="M525.7,151h-21.3c-3.1,0-5.5-2.5-5.5-5.5v-9.3c0-3.1,2.5-5.5,5.5-5.5h15.8c3.1,0,5.5,2.5,5.5,5.5v6.4h-23.3
		v4.9h23.3V151z M522.1,139.1v-4.9h-19.8v4.9H522.1z"/>
	<path class="st0" d="M556.7,151h-3.5v-16.8h-19.8V151h-3.5v-20.4h21.3c3.1,0,5.5,2.5,5.5,5.5V151z"/>
</g>
</svg>
